<?xml version="1.0"?>
<!DOCTYPE svg PUBLIC "-//W3C//DTD SVG 1.1//EN" "http://www.w3.org/Graphics/SVG/1.1/DTD/svg11.dtd">
<svg xmlns="http://www.w3.org/2000/svg" xmlns:xl="http://www.w3.org/1999/xlink" version="1.1" viewBox="0 510 143 29" width="143pt" height="29pt"><metadata xmlns:dc="http://purl.org/dc/elements/1.1/"><dc:date>2012-07-31 01:59Z</dc:date><!-- Produced by OmniGraffle Professional 5.3.6 --></metadata><defs></defs><g stroke="none" stroke-opacity="1" stroke-dasharray="none" fill="none" fill-opacity="1"><title>Canvas 1</title><g><title>Layer 1</title><path d="M 7.0311 524.24976 C 7.1300125 524.62122 7.327961 524.91632 7.9935527 524.91632 C 9.2772274 524.91632 9.721484 523.53607 10.068411 521.85736 C 10.485508 519.88348 10.559927 518.79846 9.3271713 518.79846 C 8.660363 518.79846 8.0927105 519.21912 7.7973104 519.93292 C 7.574146 520.45123 7.524934 520.77222 7.2788715 521.85736 C 7.006493 523.14124 6.9336495 523.88092 7.0311 524.24976 M 3.7750106 510.2363 L 9.746091 510.2363 L 8.3633795 516.79852 C 9.572627 515.68945 10.980669 515.2951 12.36034 515.2951 C 15.0508385 515.2951 17.074051 517.02063 16.087357 521.71057 C 15.149883 526.10217 12.509195 528.41968 9.498688 528.41968 C 8.141801 528.41968 6.7589698 528.0276 6.0207767 526.61945 L 5.6247587 528.05048 L 0 528.05048 Z" fill="#141313"/><path d="M 18.894283 515.664 L 24.719538 515.664 L 24.568861 517.0205 C 25.679676 515.91162 26.567463 515.5171 27.333784 515.5171 C 27.825556 515.5171 28.345089 515.56494 28.83831 515.86194 L 27.876347 520.35297 C 27.234264 520.17877 26.518118 520.00775 25.457127 520.00775 C 24.322794 520.00775 23.780237 520.77228 23.608723 521.5619 L 22.225285 528.0504 L 16.253609 528.0504 Z" fill="#141313"/><path d="M 37.495998 520.32733 L 37.521084 520.15582 C 37.766422 518.97058 37.299633 518.3542 36.36032 518.3542 C 35.398357 518.3542 34.608887 518.97058 34.363674 520.15582 L 34.337116 520.32733 Z M 41.912346 524.0788 C 40.876076 526.89197 38.41045 528.41968 33.769352 528.41968 C 30.14319 528.41968 27.23185 526.79285 28.292963 521.78302 C 29.204016 517.51477 32.561321 515.29504 37.000824 515.29504 C 41.689796 515.29504 43.41759 517.68738 42.480232 522.10382 L 42.307259 522.94427 L 33.769352 522.94427 L 33.696743 523.3131 C 33.37466 524.7456 33.744251 525.36053 34.929497 525.36053 C 35.596184 525.36053 36.33401 524.96686 36.68264 524.0788 Z" fill="#141313"/><path d="M 51.234394 522.64703 L 50.42056 522.64703 C 48.840996 522.64703 48.322556 523.38873 48.17406 524.0788 C 48.002552 524.86853 48.370434 525.3604 49.28318 525.3604 C 50.31994 525.3604 50.790386 524.6952 51.01294 523.68353 Z M 51.998287 519.04498 C 52.12217 518.42847 51.87416 518.05865 51.035717 518.05865 C 50.295334 518.05865 49.852783 518.3047 49.557507 519.341 L 44.620628 519.341 C 45.533504 516.0088 48.742085 515.29504 51.87416 515.29504 C 56.637825 515.29504 57.845848 516.79846 57.230206 519.68707 L 55.452934 528.0503 L 50.224316 528.0503 L 50.31994 526.86725 C 49.2107 528.0011 47.829094 528.41968 46.47281 528.41968 C 43.955524 528.41968 42.450283 527.08875 42.967255 524.6465 C 43.634052 521.58746 46.373775 520.32733 51.01294 520.32733 L 51.72774 520.32733 Z" fill="#141313"/><path d="M 61.123554 510.23633 L 67.09498 510.23633 L 64.923035 520.4513 L 64.9731 520.4513 L 68.228943 515.664 L 74.693703 515.664 L 70.103645 520.96936 L 72.30275 528.0504 L 65.83603 528.0504 L 64.751404 521.5876 L 64.700485 521.5876 L 63.318996 528.0504 L 57.347206 528.0504 Z" fill="#141313"/><path d="M 81.3771 522.64703 L 80.562164 522.64703 C 78.982353 522.64703 78.46392 523.38873 78.316887 524.0788 C 78.145615 524.86853 78.51374 525.3604 79.42771 525.3604 C 80.462273 525.3604 80.93296 524.6952 81.154175 523.68353 Z M 82.14099 519.04498 C 82.2633 518.42847 82.01748 518.05865 81.178787 518.05865 C 80.43962 518.05865 79.993904 518.3047 79.698257 519.341 L 74.76516 519.341 C 75.676086 516.0088 78.88344 515.29504 82.01748 515.29504 C 86.779053 515.29504 87.98902 516.79846 87.37143 519.68707 L 85.595634 528.0503 L 80.36519 528.0503 L 80.462273 526.86725 C 79.35401 528.0011 77.97069 528.41968 76.613686 528.41968 C 74.09835 528.41968 72.593216 527.08875 73.109825 524.6465 C 73.776405 521.58746 76.514526 520.32733 81.154175 520.32733 L 81.870445 520.32733 Z" fill="#141313"/><path d="M 89.24312 515.66406 L 94.967155 515.66406 L 94.225807 523.70837 L 94.27514 523.70837 L 97.484306 515.66406 L 104.09551 515.66406 L 103.750404 523.70837 L 103.80023 523.70837 L 106.810745 515.66406 L 112.53441 515.66406 L 106.83499 528.0504 L 99.532135 528.0504 L 99.728256 520.15594 L 99.67904 520.15594 L 96.521614 528.0504 L 89.21791 528.0504 Z" fill="#141313"/><path d="M 119.26384 522.64703 L 118.45013 522.64703 C 116.87202 522.64703 116.352844 523.38873 116.2052 524.0788 C 116.032104 524.86853 116.403526 525.3604 117.31664 525.3604 C 118.351326 525.3604 118.819824 524.6952 119.042625 523.68353 Z M 120.029564 519.04498 C 120.15345 518.42847 119.906044 518.05865 119.06687 518.05865 C 118.327576 518.05865 117.8821 518.3047 117.58536 519.341 L 112.65187 519.341 C 113.564766 516.0088 116.77128 515.29504 119.906044 515.29504 C 124.66888 515.29504 125.877136 516.79846 125.26016 519.68707 L 123.48447 528.0503 L 118.25181 528.0503 L 118.351326 526.86725 C 117.2399 528.0011 115.860474 528.41968 114.50212 528.41968 C 111.98494 528.41968 110.4798 527.08875 110.99764 524.6465 C 111.665306 521.58746 114.403214 520.32733 119.042625 520.32733 L 119.757065 520.32733 Z" fill="#141313"/><path d="M 129.35098 528.41962 L 127.05638 515.664 L 133.37291 515.664 L 133.64371 522.4746 L 133.69304 522.4746 L 136.777725 515.664 L 142.7477 515.664 L 133.22406 532.7885 L 126.761 532.7885 Z" fill="#141313"/><path d="M 61.91839 532.0064 C 62.04032 531.50525 62.113533 531.00366 61.929592 530.72314 C 61.759785 530.4416 61.25816 530.34412 61.02549 530.34412 C 60.096786 530.34412 59.61988 530.9063 59.546677 531.02875 C 59.49758 531.1267 59.216312 531.34595 58.89875 532.86194 L 58.397724 535.2213 C 57.933002 537.385 58.593475 537.64203 59.460552 537.64203 C 59.803947 537.64203 60.866646 537.51898 61.245853 535.79584 L 62.406498 535.79584 C 61.868443 538.58282 59.90115 538.58282 59.32692 538.58282 C 58.226093 538.58282 56.56382 538.5091 57.28508 535.08673 L 57.81119 532.59308 C 58.336575 530.0993 59.59589 529.39044 61.331245 529.39044 C 63.079277 529.39044 63.55556 530.2948 63.079277 532.0064 Z" fill="#141313"/><path d="M 68.508858 535.2212 L 69.145096 532.23907 C 69.535744 530.393 68.276672 530.33185 67.92244 530.33185 C 67.567352 530.33185 66.28405 530.393 65.892776 532.23907 L 65.257645 535.2212 C 64.842133 537.15234 65.306244 537.6419 66.36956 537.6419 C 67.4336 537.6419 68.093468 537.15234 68.508858 535.2212 M 64.120872 535.17163 L 64.731407 532.2754 C 65.098312 530.51483 66.260048 529.39044 68.12977 529.39044 C 69.999855 529.39044 70.648636 530.51483 70.28113 532.2754 L 69.669983 535.17163 C 69.156296 537.6172 68.04425 538.58282 66.17404 538.58282 C 64.30433 538.58282 63.607796 537.6172 64.120872 535.17163" fill="#141313"/><path d="M 78.9261 529.5733 L 77.05578 538.39923 L 75.516174 538.39923 L 73.657547 530.74677 L 73.632935 530.74677 L 72.00721 538.39923 L 71.005905 538.39923 L 72.875374 529.5733 L 74.46504 529.5733 L 76.29834 537.12787 L 76.323547 537.12787 L 77.923943 529.5733 Z" fill="#141313"/><path d="M 80.518143 535.77112 L 80.45735 536.02765 C 80.176094 537.21338 80.88516 537.60443 81.6063 537.60443 C 82.499443 537.60443 83.25688 537.22595 83.48955 536.17432 C 83.903587 534.21875 79.89482 534.43896 80.45735 531.7862 C 80.787354 530.22113 82.083443 529.39038 83.562027 529.39038 C 85.17631 529.39038 85.90902 530.17255 85.456474 531.9699 L 84.28353 531.9699 C 84.50255 531.00342 84.332497 530.36804 83.26821 530.36804 C 82.59665 530.36804 81.83909 530.7104 81.631035 531.6637 C 81.21491 533.60712 85.2489 533.32654 84.64958 536.12598 C 84.258316 537.9834 82.84089 538.5703 81.386673 538.5827 C 78.7706 538.5948 79.19841 536.61407 79.406227 535.77112 Z" fill="#141313"/><path d="M 87.732834 529.5733 L 88.856445 529.5733 L 87.66012 535.221 C 87.255936 537.15216 87.732834 537.64172 88.79579 537.64172 C 89.8602 537.64172 90.55697 537.15216 90.959206 535.221 L 92.157486 529.5733 L 93.28317 529.5733 L 92.09658 535.17145 C 91.583504 537.617 90.470726 538.58258 88.600876 538.58258 C 86.73092 538.58258 86.03414 537.617 86.547707 535.17145 Z" fill="#141313"/><path d="M 93.370605 538.39923 L 95.24021 529.5733 L 96.36466 529.5733 L 94.70252 537.42133 L 97.94265 537.42133 L 97.73459 538.39923 Z" fill="#141313"/><path d="M 105.6205 529.5733 L 105.412315 530.55084 L 103.090416 530.55084 L 101.428276 538.39923 L 100.30271 538.39923 L 101.964867 530.55084 L 99.64261 530.55084 L 99.85054 529.5733 Z" fill="#141313"/><path d="M 106.18474 538.39923 L 105.061005 538.39923 L 106.931335 529.5733 L 108.05507 529.5733 Z" fill="#141313"/><path d="M 116.29373 529.5733 L 114.423386 538.39923 L 112.88366 538.39923 L 111.02514 530.74677 L 111.00199 530.74677 L 109.37614 538.39923 L 108.372993 538.39923 L 110.24286 529.5733 L 111.832275 529.5733 L 113.66608 537.12787 L 113.690804 537.12787 L 115.29156 529.5733 Z" fill="#141313"/><path d="M 122.06797 531.93274 C 122.30076 530.89343 121.98173 530.33185 120.846176 530.33185 C 120.49182 530.33185 119.20766 530.393 118.8159 532.23907 L 118.18076 535.2212 C 117.76502 537.15234 118.23011 537.6419 119.29342 537.6419 C 120.100555 537.6419 120.68623 537.42145 120.955444 537.25067 L 121.51847 534.61 L 119.89237 534.61 L 120.100555 533.63177 L 122.850136 533.63177 L 121.93422 537.92218 C 121.12684 538.31335 120.23406 538.58282 119.09839 538.58282 C 117.22696 538.58282 116.53044 537.6172 117.04363 535.17163 L 117.65599 532.2754 C 118.02229 530.51483 119.18293 529.39044 121.05435 529.39044 C 122.96086 529.39044 123.7183 530.08667 123.24104 531.93274 Z" fill="#141313"/></g></g></svg>
